<?xml version="1.0" encoding="iso-8859-1"?>
<!-- Uploaded to: SVG Repo, www.svgrepo.com, Generator: SVG Repo Mixer Tools -->
<!DOCTYPE svg PUBLIC "-//W3C//DTD SVG 1.1//EN" "http://www.w3.org/Graphics/SVG/1.1/DTD/svg11.dtd">
<svg height="87px" width="90px" version="1.1" id="Capa_1" xmlns="http://www.w3.org/2000/svg" xmlns:xlink="http://www.w3.org/1999/xlink"
	 viewBox="0 0 478.208 478.208" xml:space="preserve">
<g>
	<linearGradient id="SVGID_1_" gradientUnits="userSpaceOnUse" x1="169.4709" y1="90.3178" x2="169.4709" y2="8.0019">
		<stop  offset="0" style="stop-color:#333333"/>
		<stop  offset="0.0523" style="stop-color:#323B3E;stop-opacity:0.9479"/>
		<stop  offset="0.3892" style="stop-color:#2E6B84;stop-opacity:0.6122"/>
		<stop  offset="0.6705" style="stop-color:#2B8DB7;stop-opacity:0.3318"/>
		<stop  offset="0.8823" style="stop-color:#2AA3D6;stop-opacity:0.1208"/>
		<stop  offset="1" style="stop-color:#29ABE2;stop-opacity:0.0034"/>
	</linearGradient>
	<path style="fill:url(#SVGID_1_);" d="M173.177,12.968c7.23,25.11,8.62,51.69,4.12,77.35l-5.15-5.25l2.56-8.38
		c3.8-12.44,2.52-25.62-3.59-37.1l-11.25-21.14c-1.78-3.35-0.5-7.52,2.84-9.3l0.64-0.34c1.61-0.86,3.47-1.04,5.22-0.5
		C170.807,8.988,172.527,10.728,173.177,12.968z"/>
	<linearGradient id="SVGID_2_" gradientUnits="userSpaceOnUse" x1="179.0049" y1="135.1678" x2="179.0049" y2="81.9878">
		<stop  offset="0" style="stop-color:#333333"/>
		<stop  offset="0.0523" style="stop-color:#323B3E;stop-opacity:0.9479"/>
		<stop  offset="0.3892" style="stop-color:#2E6B84;stop-opacity:0.6122"/>
		<stop  offset="0.6705" style="stop-color:#2B8DB7;stop-opacity:0.3318"/>
		<stop  offset="0.8823" style="stop-color:#2AA3D6;stop-opacity:0.1208"/>
		<stop  offset="1" style="stop-color:#29ABE2;stop-opacity:0.0034"/>
	</linearGradient>
	<path style="fill:url(#SVGID_2_);" d="M158.977,83.078l46.32,47.17c-2.07,1.24-3.92,2.9-5.42,4.92l-46.12-46.96
		c-1.41-1.44-1.39-3.76,0.05-5.17c0.69-0.69,1.62-1.05,2.59-1.05C157.377,81.998,158.297,82.378,158.977,83.078z"/>
	<linearGradient id="SVGID_3_" gradientUnits="userSpaceOnUse" x1="311.9254" y1="458.4633" x2="311.9254" y2="135.4978">
		<stop  offset="0" style="stop-color:#523000"/>
		<stop  offset="0.564" style="stop-color:#B56A00"/>
		<stop  offset="0.6378" style="stop-color:#B06700"/>
		<stop  offset="0.7229" style="stop-color:#A25F00"/>
		<stop  offset="0.8137" style="stop-color:#8B5200"/>
		<stop  offset="0.9078" style="stop-color:#6B3F00"/>
		<stop  offset="1" style="stop-color:#442800"/>
	</linearGradient>
	<path style="fill:url(#SVGID_3_);" d="M418.697,416.548c2.77,11.07-0.04,22.28-7.7,30.77c-7.59,8.38-18.79,12.42-29.97,10.79
		c-14.77-2.16-26.51-13.91-28.55-28.58c-7.14-51.39-29.8-108.7-67.34-170.32c-30.5-50.07-61.7-87.5-70.53-97.78
		c-1.6-1.87-3.8-3.91-5.57-5.56c-0.94-0.87-2.11-1.96-2.41-2.32c-2.92-3.53-3.34-8.58-1.04-12.54c2.04-3.53,5.75-5.51,9.56-5.51
		c1.87,0,3.77,0.48,5.5,1.48c1.83,1.06,45.27,26.49,92.84,80.33c27.9,31.57,51.43,66.43,69.95,103.61
		C398.517,351.208,410.377,383.378,418.697,416.548z M396.627,429.738c1.05-3.43,0.7-7.07-0.99-10.23c-1.68-3.17-4.5-5.49-7.93-6.54
		c-7.08-2.16-14.6,1.84-16.76,8.93c-2.17,7.08,1.84,14.6,8.92,16.76c1.29,0.39,2.62,0.59,3.94,0.59c2.17,0,4.32-0.53,6.29-1.58
		C393.257,435.988,395.577,433.168,396.627,429.738z"/>
	<linearGradient id="SVGID_4_" gradientUnits="userSpaceOnUse" x1="59.4968" y1="282.7778" x2="171.3968" y2="282.7778">
		<stop  offset="0" style="stop-color:#FCEE21"/>
		<stop  offset="0.2166" style="stop-color:#F9EC21"/>
		<stop  offset="0.3526" style="stop-color:#F1E320"/>
		<stop  offset="0.4666" style="stop-color:#E2D61E"/>
		<stop  offset="0.5683" style="stop-color:#CDC21B"/>
		<stop  offset="0.6618" style="stop-color:#B3A917"/>
		<stop  offset="0.7494" style="stop-color:#928913"/>
		<stop  offset="0.8324" style="stop-color:#6A640E"/>
		<stop  offset="0.9117" style="stop-color:#3D3908"/>
		<stop  offset="0.9855" style="stop-color:#0B0A01"/>
		<stop  offset="1" style="stop-color:#000000"/>
	</linearGradient>
	<path style="fill:url(#SVGID_4_);" d="M164.397,110.458l7,7.13l-21.91,94.99c-13.49,17.4-23.59,36.9-30.02,57.97l-56.36,184.55
		l-3.61-1.1L164.397,110.458z"/>
	<linearGradient id="SVGID_5_" gradientUnits="userSpaceOnUse" x1="70.7568" y1="339.3828" x2="178.0722" y2="339.3828">
		<stop  offset="0" style="stop-color:#333333"/>
		<stop  offset="0.0523" style="stop-color:#323B3E;stop-opacity:0.9479"/>
		<stop  offset="0.3892" style="stop-color:#2E6B84;stop-opacity:0.6122"/>
		<stop  offset="0.6705" style="stop-color:#2B8DB7;stop-opacity:0.3318"/>
		<stop  offset="0.8823" style="stop-color:#2AA3D6;stop-opacity:0.1208"/>
		<stop  offset="1" style="stop-color:#29ABE2;stop-opacity:0.0034"/>
	</linearGradient>
	<path style="fill:url(#SVGID_5_);" d="M174.237,223.968c4.09,7.67,4.94,16.47,2.4,24.79l-51.47,168.56l-22.84-1.2
		c-1.68-0.09-3.23,0.87-3.89,2.42c-0.66,1.54-0.28,3.33,0.94,4.48l18.68,17.58l-8.74,28.62l-38.56-11.78l56.36-184.56
		c6.22-20.36,16.02-39.19,29.13-55.96c0.3-0.39,0.53-0.83,0.67-1.3l1.86-6.07C165.387,212.478,170.797,217.488,174.237,223.968z"/>
	<path d="M426.457,414.598c3.38,13.51-0.18,27.74-9.53,38.08c-8,8.85-19.27,13.78-30.99,13.78c-2.01,0-4.04-0.14-6.06-0.44
		c-18.27-2.66-32.79-17.22-35.32-35.39c-6.99-50.3-29.28-106.58-66.25-167.26c-30.19-49.55-61.03-86.57-69.77-96.73
		c-1.31-1.52-3.33-3.4-4.95-4.91c-1.59-1.48-2.52-2.35-3.13-3.09c-3.62-4.39-5-10.12-4.02-15.55l-18.36-18.7l-17.21,77.34
		c8.76,3.57,15.94,10.03,20.44,18.48c5.08,9.56,6.14,20.53,2.98,30.88l-52.38,171.55c-0.54,1.76-2.21,2.93-4.04,2.83l-15.06-0.79
		l12.54,11.8c1.11,1.05,1.53,2.63,1.09,4.08l-10.63,34.82c-0.31,1.01-1.02,1.86-1.95,2.36c-0.59,0.31-1.23,0.47-1.88,0.47
		c-0.39,0-0.79-0.06-1.17-0.18l-57.48-17.55c-2.11-0.64-3.3-2.88-2.65-4.99l107.34-351.53l-9.97-10.14
		c-4.5-4.59-4.43-11.99,0.15-16.49c2.22-2.18,5.17-3.4,8.28-3.34c3.11,0.03,6.03,1.26,8.21,3.49l1.08,1.09l1.29-4.22
		c3.17-10.39,2.11-21.41-3-31.01l-11.25-21.13c-3.85-7.25-1.09-16.27,6.14-20.12l0.64-0.34c3.5-1.86,7.52-2.25,11.32-1.1
		c4.83,1.48,8.56,5.26,9.95,10.1c8.1,28.1,9.2,57.95,3.26,86.51l29.75,30.29c3.64-0.25,7.39,0.54,10.78,2.51
		c1.88,1.08,46.41,27.15,94.84,81.96c28.35,32.09,52.28,67.53,71.11,105.33C405.937,348.158,417.997,380.878,426.457,414.598z
		 M410.997,447.318c7.66-8.49,10.47-19.7,7.7-30.77c-8.32-33.17-20.18-65.34-35.26-95.63c-18.52-37.18-42.05-72.04-69.95-103.61
		c-47.57-53.84-91.01-79.27-92.84-80.33c-1.73-1-3.63-1.48-5.5-1.48c-3.81,0-7.52,1.98-9.56,5.51c-2.3,3.96-1.88,9.01,1.04,12.54
		c0.3,0.36,1.47,1.45,2.41,2.32c1.77,1.65,3.97,3.69,5.57,5.56c8.83,10.28,40.03,47.71,70.53,97.78
		c37.54,61.62,60.2,118.93,67.34,170.32c2.04,14.67,13.78,26.42,28.55,28.58C392.207,459.738,403.407,455.698,410.997,447.318z
		 M205.297,130.248l-46.32-47.17c-0.68-0.7-1.6-1.08-2.58-1.09c-0.97,0-1.9,0.36-2.59,1.05c-1.44,1.41-1.46,3.73-0.05,5.17
		l46.12,46.96C201.377,133.148,203.227,131.488,205.297,130.248z M177.297,90.318c4.5-25.66,3.11-52.24-4.12-77.35
		c-0.65-2.24-2.37-3.98-4.61-4.66c-1.75-0.54-3.61-0.36-5.22,0.5l-0.64,0.34c-3.34,1.78-4.62,5.95-2.84,9.3l11.25,21.14
		c6.11,11.48,7.39,24.66,3.59,37.1l-2.56,8.38L177.297,90.318z M176.637,248.758c2.54-8.32,1.69-17.12-2.4-24.79
		c-3.44-6.48-8.85-11.49-15.46-14.42l-1.86,6.07c-0.14,0.47-0.37,0.91-0.67,1.3c-13.11,16.77-22.91,35.6-29.13,55.96l-56.36,184.56
		l38.56,11.78l8.74-28.62l-18.68-17.58c-1.22-1.15-1.6-2.94-0.94-4.48c0.66-1.55,2.21-2.51,3.89-2.42l22.84,1.2L176.637,248.758z
		 M171.397,117.588l-7-7.13l-104.9,343.54l3.61,1.1l56.36-184.55c6.43-21.07,16.53-40.57,30.02-57.97L171.397,117.588z"/>
	<path d="M395.637,419.508c1.69,3.16,2.04,6.8,0.99,10.23s-3.37,6.25-6.53,7.93c-1.97,1.05-4.12,1.58-6.29,1.58
		c-1.32,0-2.65-0.2-3.94-0.59c-7.08-2.16-11.09-9.68-8.92-16.76c2.16-7.09,9.68-11.09,16.76-8.93
		C391.137,414.018,393.957,416.338,395.637,419.508z M388.977,427.398c0.42-1.38,0.28-2.85-0.4-4.13c-0.68-1.28-1.82-2.22-3.21-2.64
		c-0.52-0.17-1.05-0.24-1.58-0.24c-2.32,0-4.48,1.51-5.19,3.84c-0.88,2.86,0.74,5.9,3.6,6.78c1.39,0.42,2.86,0.28,4.14-0.4
		C387.617,429.928,388.557,428.788,388.977,427.398z"/>
</g>
</svg>