<?xml version="1.0" standalone="no"?>
<!DOCTYPE svg PUBLIC "-//W3C//DTD SVG 20010904//EN"
 "http://www.w3.org/TR/2001/REC-SVG-20010904/DTD/svg10.dtd">
<svg version="1.0" xmlns="http://www.w3.org/2000/svg"
 width="1280.000000pt" height="640.000000pt" viewBox="0 0 1280.000000 640.000000"
 preserveAspectRatio="xMidYMid meet">
<metadata>
Created by potrace 1.15, written by Peter Selinger 2001-2017
</metadata>
<g transform="translate(0.000000,640.000000) scale(0.100000,-0.100000)"
fill="#917758" stroke="none">
<path d="M7140 6331 c-226 -50 -443 -172 -646 -364 l-94 -89 -90 83 c-138 126
-233 193 -375 263 -187 92 -261 110 -460 111 -137 0 -172 -3 -245 -23 -211
-58 -449 -205 -659 -407 -273 -264 -460 -597 -560 -1000 -70 -282 -100 -506
-155 -1165 -20 -229 -45 -488 -56 -575 -57 -446 -139 -759 -275 -1043 -236
-492 -631 -842 -1145 -1012 -424 -142 -849 -127 -1182 41 -281 142 -503 427
-589 757 -26 100 -36 301 -20 413 15 100 66 260 115 356 200 396 620 639 1071
620 207 -9 260 -27 585 -197 104 -54 240 -99 269 -88 26 9 -230 311 -367 435
-264 235 -517 343 -807 343 -438 0 -886 -272 -1178 -715 -257 -390 -338 -849
-228 -1281 75 -294 230 -591 448 -860 91 -112 288 -310 408 -409 488 -405
1124 -550 1874 -429 368 59 724 172 1086 343 471 224 939 581 1495 1140 373
375 750 816 956 1117 37 54 71 103 74 107 4 5 56 -64 115 -153 572 -858 1287
-1552 2093 -2031 349 -208 686 -348 1079 -448 787 -200 1459 -142 1971 170
209 128 535 456 743 749 306 429 448 896 398 1305 -42 344 -204 652 -498 946
-226 226 -428 349 -681 416 -137 36 -348 43 -480 15 -248 -51 -451 -173 -681
-409 -105 -107 -289 -327 -289 -345 0 -13 32 -9 116 12 51 13 151 56 279 120
219 108 263 126 363 140 212 31 468 -13 667 -113 112 -56 186 -108 277 -195
166 -159 273 -346 330 -581 27 -111 29 -338 4 -449 -34 -156 -114 -332 -213
-470 -277 -389 -803 -553 -1370 -426 -443 99 -819 327 -1086 659 -112 139
-168 227 -247 390 -193 393 -267 750 -340 1620 -57 684 -98 982 -176 1258
-138 493 -425 888 -841 1161 -119 78 -281 157 -373 181 -100 26 -304 29 -410
6z"/>
</g>
</svg>
