<?xml version="1.0" encoding="iso-8859-1"?>
<!-- Uploaded to: SVG Repo, www.svgrepo.com, Generator: SVG Repo Mixer Tools -->
<svg version="1.1" id="Layer_1" xmlns="http://www.w3.org/2000/svg" xmlns:xlink="http://www.w3.org/1999/xlink"
	 viewBox="0 0 511.984 511.984" xml:space="preserve" height="87px" width="90px">
<rect x="23.838" y="429.831" transform="matrix(-0.7071 -0.7071 0.7071 -0.7071 -262.2408 832.777)" style="fill:#88888F;" width="35.03" height="81.738"/>
<path style="fill:#797781;" d="M359.167,284.845c0,0-148.622,132.115-198.162,165.141c-32.196,21.46-71.722,27.359-99.084,0
	c-27.359-27.361-21.462-66.889,0.002-99.085C94.95,301.363,227.06,152.74,227.06,152.74"/>
<path style="fill:#58575D;" d="M293.152,218.832L61.96,450.023c27.36,27.314,66.863,21.413,99.044-0.037
	c49.541-33.026,198.162-165.141,198.162-165.141L293.152,218.832z"/>
<path style="fill:#88888F;" d="M342.654,20.631L235.315,127.97c-13.681,13.681-13.681,35.859,0,49.538l99.081,99.086
	c13.683,13.68,35.863,13.68,49.543-0.001L491.275,169.25L342.654,20.631z"/>
<path style="fill:#797781;" d="M491.275,169.25l-74.27-74.27L284.894,227.087l49.502,49.506c13.683,13.68,35.863,13.68,49.543-0.001
	L491.275,169.25z"/>
<g>

		<rect x="399.459" y="36.55" transform="matrix(-0.7071 -0.7071 0.7071 -0.7071 644.6912 456.9082)" style="fill:#58575D;" width="35.03" height="116.768"/>

		<rect x="358.166" y="-4.715" transform="matrix(-0.7071 -0.7071 0.7071 -0.7071 603.3784 357.2654)" style="fill:#58575D;" width="35.03" height="116.768"/>

		<rect x="399.862" y="118.702" transform="matrix(0.7071 -0.7071 0.7071 0.7071 37.8969 363.9258)" style="fill:#58575D;" width="116.768" height="35.03"/>
</g>
<path style="fill:#E07188;" d="M313.754,198.153c-9.105-9.105-9.106-23.919-0.002-33.026c9.114-9.102,23.924-9.102,33.026-0.007
	c9.11,9.11,9.109,23.921,0.009,33.029C337.656,207.254,322.847,207.246,313.754,198.153z"/>
</svg>